<svg width="32" height="20" viewBox="0 0 32 20" fill="none" xmlns="http://www.w3.org/2000/svg">
<path d="M12.9832 9.16251C12.9832 9.16251 15.9473 8.93729 15.9473 5.39058C15.9473 1.84681 13.9369 0.0998987 10.8642 0.0998987L0.337646 0.083252V19.6675H11.109C11.109 19.6675 16.4946 19.8379 16.4946 13.7922C16.4946 13.7922 16.8902 9.16251 12.9832 9.16251ZM4.25449 3.02089H9.64016C9.64016 3.02089 11.483 3.05124 11.483 5.44052C11.483 7.91695 9.64016 7.91695 9.64016 7.91695H4.25449V3.02089ZM10.1298 16.7299H4.25449V10.8546H10.1298C10.1298 10.8546 13.0674 10.8849 13.0674 13.7922C13.0674 16.6995 10.5528 16.7299 10.1298 16.7299Z" fill="#D48E77"/>
<path d="M24.8182 4.97949C17.4613 4.97949 17.4741 12.3236 17.4741 12.3236C17.4741 12.3236 16.9845 19.6677 24.8182 19.6677C24.8182 19.6677 31.6726 19.6677 31.6726 13.7924H27.7558C27.7558 13.7924 27.7558 16.73 24.8182 16.73C24.8182 16.73 21.8805 16.73 21.8805 12.8132C21.8805 12.8132 29.7142 12.8132 31.6726 12.8132C31.6726 10.8548 31.6726 4.97949 24.8182 4.97949ZM21.8805 10.8548C21.8805 10.8548 21.8159 7.91713 24.8182 7.91713C27.8194 7.91713 27.7558 10.8548 27.7558 10.8548H21.8805Z" fill="#D48E77"/>
<path d="M28.7352 2.04175H20.9015V4.00017H28.7352V2.04175Z" fill="#D48E77"/>
</svg>
