<svg width="32" height="32" viewBox="0 0 32 32" fill="none" xmlns="http://www.w3.org/2000/svg">
<path d="M15.6005 1.45288C23.6451 1.45288 30.1539 7.96169 30.1539 15.9941C30.1539 24.0265 23.6451 30.5475 15.6005 30.5475C7.55593 30.5475 1.04712 24.0387 1.04712 16.0063C1.04712 7.97388 7.55593 1.45288 15.6005 1.45288Z" fill="#E7BEB1"/>
<path d="M15.6016 31.5834C6.99636 31.5834 0 24.5993 0 16.0062C0 7.40092 6.99636 0.416748 15.6016 0.416748C24.2069 0.416748 31.2033 7.40092 31.2033 15.994C31.2033 24.5871 24.2069 31.5834 15.6016 31.5834ZM28.7533 18.127C28.3023 17.9808 24.6335 16.896 20.4528 17.5542C22.1958 22.3322 22.9027 26.2326 23.0368 27.037C26.0352 25.0259 28.1683 21.8324 28.7533 18.127ZM20.8062 28.2681C20.6112 27.098 19.8311 23.0269 17.9663 18.1758C17.9419 18.188 17.9053 18.2002 17.8809 18.2002C10.3605 20.8208 7.66674 26.0254 7.42296 26.5129C9.67789 28.2681 12.5179 29.3163 15.6016 29.3163C17.4421 29.3285 19.2095 28.9507 20.8062 28.2681ZM5.70435 24.9162C6.00907 24.4043 9.6657 18.3586 16.5402 16.1281C16.7108 16.0671 16.8936 16.0184 17.0643 15.9696C16.7352 15.2139 16.3695 14.4582 15.9795 13.7147C9.32441 15.7015 2.86436 15.6161 2.2793 15.604C2.2793 15.738 2.26711 15.8721 2.26711 16.0062C2.2793 19.4312 3.57131 22.5516 5.70435 24.9162ZM2.55964 13.2881C3.15689 13.3003 8.64184 13.3247 14.8825 11.667C12.6763 7.7422 10.2873 4.45123 9.94604 3.97587C6.20409 5.73105 3.42505 9.16829 2.55964 13.2881ZM12.4813 3.0739C12.847 3.56145 15.2725 6.85242 17.4543 10.8625C22.1958 9.08297 24.1947 6.40144 24.4385 6.06015C22.0861 3.97587 18.9901 2.70824 15.6016 2.70824C14.529 2.70824 13.4808 2.84231 12.4813 3.0739ZM25.9133 7.59594C25.633 7.97379 23.4024 10.8382 18.4782 12.8493C18.7829 13.4831 19.0876 14.1291 19.368 14.7751C19.4655 15.0067 19.563 15.2383 19.6605 15.4577C24.0972 14.897 28.4974 15.799 28.9361 15.8843C28.8996 12.7518 27.7782 9.86305 25.9133 7.59594Z" fill="#CE7D63"/>
</svg>
